<svg xmlns="http://www.w3.org/2000/svg" fill="none" viewBox="0 0 256 256"><g data-testid="Icon"><defs><clipPath id="a" class="frame-clip frame-clip-def"><rect width="256" height="256" rx="0" ry="0"/></clipPath></defs><g clip-path="url(#a)"><g class="fills"><rect width="256" height="256" class="frame-background" rx="0" ry="0"/></g><g class="frame-children"><path fill="#151515" d="M102.4 256C34.13 256 0 221.87 0 153.6v-51.2C0 34.13 34.13 0 102.4 0h51.2C221.87 0 256 34.13 256 102.4v51.2c0 68.27-34.13 102.4-102.4 102.4Z" class="fills" data-testid="Squircle"/><g clip-path="url(#b)" data-testid="Mask" mask="url(#c)"><defs><clipPath id="b" class="mask-clip-path"><path d="M0 0h256v256H0"/></clipPath><filter id="d"><feFlood flood-color="#fff" result="FloodResult"/><feComposite in="FloodResult" in2="SourceGraphic" operator="in" result="comp"/></filter><mask id="c" width="256" height="256" x="0" y="0" class="mask-shape" data-old-height="256" data-old-width="256" data-old-x="0" data-old-y="0" maskUnits="userSpaceOnUse"><g filter="url(#d)"><path fill="#151515" d="M102.4 256C34.13 256 0 221.87 0 153.6v-51.2C0 34.13 34.13 0 102.4 0h51.2C221.87 0 256 34.13 256 102.4v51.2c0 68.27-34.13 102.4-102.4 102.4h-51.2ZM93 103" class="fills" data-testid="Squircle"/></g></mask></defs><g data-testid="Group" filter="url(#e)"><defs><filter id="e" width="1.75" height="1.75" x="-.38" y="-.38" color-interpolation-filters="sRGB" filterUnits="objectBoundingBox"><feFlood flood-opacity="0" result="BackgroundImageFix"/><feBlend in="SourceGraphic" in2="BackgroundImageFix" result="shape"/><feGaussianBlur result="filter_3e421832-24d0-8013-8004-d00d0c67f5f8" stdDeviation="48"/></filter></defs><circle cx="61.09" cy="61.09" r="61.09" fill="#fa9549" class="fills" data-testid="Ellipse"/><circle cx="194.91" cy="61.09" r="61.09" fill="#55fa49" class="fills" data-testid="Ellipse"/><circle cx="61.09" cy="194.91" r="61.09" fill="#49aefa" class="fills" data-testid="Ellipse"/><circle cx="194.91" cy="194.91" r="61.09" fill="#ed49fa" class="fills" data-testid="Ellipse"/></g></g><g data-testid="Magnifying Glass"><g data-testid="Ellipse"><circle cx="99.72" cy="99.72" r="64" class="fills" transform="rotate(45 99.72 99.72)"/><g class="strokes"><g class="inner-stroke-shape" transform="rotate(45 99.72 99.72)"><defs><clipPath id="g"><use href="#f"/></clipPath><circle id="f" cx="99.72" cy="99.72" r="64" fill="none" stroke="#fff" stroke-opacity="1" stroke-width="48"/></defs><use clip-path="url('#g')" href="#f"/></g></g></g><rect width="96" height="24" x="119.6" y="155.6" fill="#fff" class="fills" data-testid="Rectangle" rx="12" ry="12" transform="rotate(45 167.6 167.6)"/></g></g></g></g></svg>
